# xmcd
# Copyright (C) 1995-1998 Ti Kan
#
# Track frame offsets:
#       150
#       12647
#       26016
#       39476
#       53064
#       66340
#
# Disc length: 1053 seconds
#
# Revision: 0
# Processed by: cddbd v1.5.2PL0 Copyright (c) Steve Scherf et al.
# Submitted via: CD-Transfer v1.0
#
DISCID=4d041b06
DTITLE=Die Alpenstürmer - 
DYEAR=08
DGENRE=
TTITLE0=Sturm Auf Die Alpen (08)
TTITLE1=Frag Nix Sag Nix (08)
TTITLE2=Leben Ist Weinen Leben Ist Lachen (08)
TTITLE3=Quiki Auf Saloniki (08)
TTITLE4=Wilder Wind (08)
TTITLE5=Alpenstürmer Polka Party (8)
EXTD=
EXTT0=
EXTT1=
EXTT2=
EXTT3=
EXTT4=
EXTT5=
PLAYORDER=
